name rise30.3154peak39.0474fall46.5389.mot
datacolumns 19
datarows 27
range 5.16664600000000 5.20998500000000
endheader
time	ground_force1_vx	ground_force1_vy	ground_force1_vz	ground_force1_px	ground_force1_py	ground_force1_pz	ground_force2_vx	ground_force2_vy	ground_force2_vz	ground_force2_px	ground_force2_py	ground_force2_pz	ground_torque1_x	ground_torque1_y	ground_torque1_z	ground_torque2_x	ground_torque2_y	ground_torque2_z	
5.16664600000000	4.06645300000000	690.52910499999996	42.05547200000000	0.19897200000000	0.00000000000000	0.12197800000000	0.00000000000000	0.00000000000000	0.00000000000000	0.00000000000000	0.00000000000000	0.00000000000000	0.00000000000000	14.91345100000000	0.00000000000000	0.00000000000000	0.00000000000000	0.00000000000000	
5.16831800000000	3.71936600000000	691.05626199999995	42.07900300000000	0.19810500000000	0.00000000000000	0.12200000000000	0.00000000000000	0.00000000000000	0.00000000000000	0.00000000000000	0.00000000000000	0.00000000000000	0.00000000000000	14.96718800000000	0.00000000000000	0.00000000000000	0.00000000000000	0.00000000000000	
5.16997900000000	3.36355800000000	691.65541499999995	42.10800900000000	0.19722300000000	0.00000000000000	0.12202200000000	0.00000000000000	0.00000000000000	0.00000000000000	0.00000000000000	0.00000000000000	0.00000000000000	0.00000000000000	15.02489900000000	0.00000000000000	0.00000000000000	0.00000000000000	0.00000000000000	
5.17164600000000	2.99868000000000	692.32577300000003	42.14225300000000	0.19632600000000	0.00000000000000	0.12204300000000	0.00000000000000	0.00000000000000	0.00000000000000	0.00000000000000	0.00000000000000	0.00000000000000	0.00000000000000	15.08651900000000	0.00000000000000	0.00000000000000	0.00000000000000	0.00000000000000	
5.17332100000000	2.62441000000000	693.06649600000003	42.18150300000000	0.19541400000000	0.00000000000000	0.12206400000000	0.00000000000000	0.00000000000000	0.00000000000000	0.00000000000000	0.00000000000000	0.00000000000000	0.00000000000000	15.15198400000000	0.00000000000000	0.00000000000000	0.00000000000000	0.00000000000000	
5.17498300000000	2.24045500000000	693.87670500000002	42.22552600000000	0.19448600000000	0.00000000000000	0.12208400000000	0.00000000000000	0.00000000000000	0.00000000000000	0.00000000000000	0.00000000000000	0.00000000000000	0.00000000000000	15.22123100000000	0.00000000000000	0.00000000000000	0.00000000000000	0.00000000000000	
5.17665400000000	1.84655100000000	694.75547900000004	42.27409800000000	0.19354400000000	0.00000000000000	0.12210400000000	0.00000000000000	0.00000000000000	0.00000000000000	0.00000000000000	0.00000000000000	0.00000000000000	0.00000000000000	15.29419300000000	0.00000000000000	0.00000000000000	0.00000000000000	0.00000000000000	
5.17832000000000	1.44246200000000	695.70186200000001	42.32699500000000	0.19258800000000	0.00000000000000	0.12212200000000	0.00000000000000	0.00000000000000	0.00000000000000	0.00000000000000	0.00000000000000	0.00000000000000	0.00000000000000	15.37080500000000	0.00000000000000	0.00000000000000	0.00000000000000	0.00000000000000	
5.17998000000000	1.02798600000000	696.71486300000004	42.38400400000000	0.19161900000000	0.00000000000000	0.12214000000000	0.00000000000000	0.00000000000000	0.00000000000000	0.00000000000000	0.00000000000000	0.00000000000000	0.00000000000000	15.45100000000000	0.00000000000000	0.00000000000000	0.00000000000000	0.00000000000000	
5.18165000000000	0.60294900000000	697.79346099999998	42.44491600000000	0.19063500000000	0.00000000000000	0.12215700000000	0.00000000000000	0.00000000000000	0.00000000000000	0.00000000000000	0.00000000000000	0.00000000000000	0.00000000000000	15.53471100000000	0.00000000000000	0.00000000000000	0.00000000000000	0.00000000000000	
5.18331700000000	0.16720900000000	698.93660699999998	42.50953100000000	0.18964000000000	0.00000000000000	0.12217400000000	0.00000000000000	0.00000000000000	0.00000000000000	0.00000000000000	0.00000000000000	0.00000000000000	0.00000000000000	15.62187100000000	0.00000000000000	0.00000000000000	0.00000000000000	0.00000000000000	
5.18498700000000	-0.27934300000000	700.14322300000003	42.57765800000000	0.18863200000000	0.00000000000000	0.12218900000000	0.00000000000000	0.00000000000000	0.00000000000000	0.00000000000000	0.00000000000000	0.00000000000000	0.00000000000000	15.71241100000000	0.00000000000000	0.00000000000000	0.00000000000000	0.00000000000000	
5.18664700000000	-0.73678600000000	701.41220499999997	42.64911700000000	0.18761400000000	0.00000000000000	0.12220300000000	0.00000000000000	0.00000000000000	0.00000000000000	0.00000000000000	0.00000000000000	0.00000000000000	0.00000000000000	15.80626200000000	0.00000000000000	0.00000000000000	0.00000000000000	0.00000000000000	
5.18831300000000	-1.20516600000000	702.74242800000002	42.72373500000000	0.18658400000000	0.00000000000000	0.12221600000000	0.00000000000000	0.00000000000000	0.00000000000000	0.00000000000000	0.00000000000000	0.00000000000000	0.00000000000000	15.90335300000000	0.00000000000000	0.00000000000000	0.00000000000000	0.00000000000000	
5.18998300000000	-1.68449700000000	704.13273800000002	42.80135400000000	0.18554600000000	0.00000000000000	0.12222800000000	0.00000000000000	0.00000000000000	0.00000000000000	0.00000000000000	0.00000000000000	0.00000000000000	0.00000000000000	16.00361200000000	0.00000000000000	0.00000000000000	0.00000000000000	0.00000000000000	
5.19165100000000	-2.17476000000000	705.58195999999998	42.88182500000000	0.18449900000000	0.00000000000000	0.12223900000000	0.00000000000000	0.00000000000000	0.00000000000000	0.00000000000000	0.00000000000000	0.00000000000000	0.00000000000000	16.10696700000000	0.00000000000000	0.00000000000000	0.00000000000000	0.00000000000000	
5.19331700000000	-2.67590500000000	707.08889599999998	42.96501400000000	0.18344400000000	0.00000000000000	0.12224900000000	0.00000000000000	0.00000000000000	0.00000000000000	0.00000000000000	0.00000000000000	0.00000000000000	0.00000000000000	16.21334300000000	0.00000000000000	0.00000000000000	0.00000000000000	0.00000000000000	
5.19498200000000	-3.18785000000000	708.65232200000003	43.05079900000000	0.18238200000000	0.00000000000000	0.12225800000000	0.00000000000000	0.00000000000000	0.00000000000000	0.00000000000000	0.00000000000000	0.00000000000000	0.00000000000000	16.32266300000000	0.00000000000000	0.00000000000000	0.00000000000000	0.00000000000000	
5.19665400000000	-3.71048000000000	710.27099099999998	43.13907000000000	0.18131500000000	0.00000000000000	0.12226500000000	0.00000000000000	0.00000000000000	0.00000000000000	0.00000000000000	0.00000000000000	0.00000000000000	0.00000000000000	16.43484900000000	0.00000000000000	0.00000000000000	0.00000000000000	0.00000000000000	
5.19831200000000	-4.24365200000000	711.94362999999998	43.22973400000000	0.18024300000000	0.00000000000000	0.12227100000000	0.00000000000000	0.00000000000000	0.00000000000000	0.00000000000000	0.00000000000000	0.00000000000000	0.00000000000000	16.54982000000000	0.00000000000000	0.00000000000000	0.00000000000000	0.00000000000000	
5.19998100000000	-4.78718700000000	713.66893700000003	43.32270900000000	0.17916700000000	0.00000000000000	0.12227600000000	0.00000000000000	0.00000000000000	0.00000000000000	0.00000000000000	0.00000000000000	0.00000000000000	0.00000000000000	16.66749200000000	0.00000000000000	0.00000000000000	0.00000000000000	0.00000000000000	
5.20164900000000	-5.34088000000000	715.44558300000006	43.41792900000000	0.17808800000000	0.00000000000000	0.12227900000000	0.00000000000000	0.00000000000000	0.00000000000000	0.00000000000000	0.00000000000000	0.00000000000000	0.00000000000000	16.78777900000000	0.00000000000000	0.00000000000000	0.00000000000000	0.00000000000000	
5.20331800000000	-5.90449400000000	717.27220899999998	43.51534400000000	0.17700700000000	0.00000000000000	0.12228100000000	0.00000000000000	0.00000000000000	0.00000000000000	0.00000000000000	0.00000000000000	0.00000000000000	0.00000000000000	16.91059300000000	0.00000000000000	0.00000000000000	0.00000000000000	0.00000000000000	
5.20498000000000	-6.47776300000000	719.14742200000001	43.61491600000000	0.17592500000000	0.00000000000000	0.12228200000000	0.00000000000000	0.00000000000000	0.00000000000000	0.00000000000000	0.00000000000000	0.00000000000000	0.00000000000000	17.03584000000000	0.00000000000000	0.00000000000000	0.00000000000000	0.00000000000000	
5.20665400000000	-7.06039000000000	721.06979500000000	43.71662400000000	0.17484200000000	0.00000000000000	0.12228100000000	0.00000000000000	0.00000000000000	0.00000000000000	0.00000000000000	0.00000000000000	0.00000000000000	0.00000000000000	17.16342600000000	0.00000000000000	0.00000000000000	0.00000000000000	0.00000000000000	
5.20831800000000	-7.65205200000000	723.03786300000002	43.82045900000000	0.17376100000000	0.00000000000000	0.12227900000000	0.00000000000000	0.00000000000000	0.00000000000000	0.00000000000000	0.00000000000000	0.00000000000000	0.00000000000000	17.29325000000000	0.00000000000000	0.00000000000000	0.00000000000000	0.00000000000000	
5.20998500000000	-8.25239900000000	725.05011999999999	43.92642800000000	0.17268100000000	0.00000000000000	0.12227500000000	0.00000000000000	0.00000000000000	0.00000000000000	0.00000000000000	0.00000000000000	0.00000000000000	0.00000000000000	17.42520900000000	0.00000000000000	0.00000000000000	0.00000000000000	0.00000000000000	
